REM DIRINDEX 1\4,1\2\5,1\2\6,1\3\7,1\3\8
REM DIRNAME cjc124,folder01,folder02,folder03,folder04,folder05,folder06,folder07
TITLE ""
FILE "093_Day47_Check2_Phrases.mp3" MP3
  TRACK 01 AUDIO
    TITLE "0:"
    INDEX 01 00:00:00
  TRACK 02 AUDIO
    TITLE "4:cjc124_3039"
    INDEX 01 00:00:33
  TRACK 03 AUDIO
    TITLE "0:"
    INDEX 01 00:01:58
  TRACK 04 AUDIO
    TITLE "5:cjc124_3040"
    INDEX 01 00:02:12
  TRACK 05 AUDIO
    TITLE "0:"
    INDEX 01 00:03:49
  TRACK 06 AUDIO
    TITLE "6:cjc124_3041"
    INDEX 01 00:03:72
  TRACK 07 AUDIO
    TITLE "0:"
    INDEX 01 00:05:40
  TRACK 08 AUDIO
    TITLE "5:cjc124_3042"
    INDEX 01 00:06:06
  TRACK 09 AUDIO
    TITLE "0:"
    INDEX 01 00:08:38
  TRACK 10 AUDIO
    TITLE "6:cjc124_3043"
    INDEX 01 00:08:54
  TRACK 11 AUDIO
    TITLE "0:"
    INDEX 01 00:11:07
  TRACK 12 AUDIO
    TITLE "5:cjc124_3044"
    INDEX 01 00:11:46
  TRACK 13 AUDIO
    TITLE "0:"
    INDEX 01 00:14:37
  TRACK 14 AUDIO
    TITLE "6:cjc124_3045"
    INDEX 01 00:14:53
  TRACK 15 AUDIO
    TITLE "0:"
    INDEX 01 00:17:16
  TRACK 16 AUDIO
    TITLE "5:cjc124_3046"
    INDEX 01 00:17:55
  TRACK 17 AUDIO
    TITLE "0:"
    INDEX 01 00:20:10
  TRACK 18 AUDIO
    TITLE "6:cjc124_3047"
    INDEX 01 00:20:28
  TRACK 19 AUDIO
    TITLE "0:"
    INDEX 01 00:22:07
  TRACK 20 AUDIO
    TITLE "5:cjc124_3048"
    INDEX 01 00:22:44
  TRACK 21 AUDIO
    TITLE "0:"
    INDEX 01 00:24:14
  TRACK 22 AUDIO
    TITLE "6:cjc124_3049"
    INDEX 01 00:24:37
  TRACK 23 AUDIO
    TITLE "0:"
    INDEX 01 00:25:54
  TRACK 24 AUDIO
    TITLE "5:cjc124_3050"
    INDEX 01 00:26:17
  TRACK 25 AUDIO
    TITLE "0:"
    INDEX 01 00:28:45
  TRACK 26 AUDIO
    TITLE "6:cjc124_3051"
    INDEX 01 00:28:60
  TRACK 27 AUDIO
    TITLE "0:"
    INDEX 01 00:30:48
  TRACK 28 AUDIO
    TITLE "5:cjc124_3052"
    INDEX 01 00:31:16
  TRACK 29 AUDIO
    TITLE "0:"
    INDEX 01 00:33:60
  TRACK 30 AUDIO
    TITLE "6:cjc124_3053"
    INDEX 01 00:34:02
  TRACK 31 AUDIO
    TITLE "0:"
    INDEX 01 00:36:33
  TRACK 32 AUDIO
    TITLE "5:cjc124_3054"
    INDEX 01 00:37:03
  TRACK 33 AUDIO
    TITLE "0:"
    INDEX 01 00:39:19
  TRACK 34 AUDIO
    TITLE "6:cjc124_3055"
    INDEX 01 00:39:37
  TRACK 35 AUDIO
    TITLE "0:"
    INDEX 01 00:41:06
  TRACK 36 AUDIO
    TITLE "5:cjc124_3056"
    INDEX 01 00:41:44
  TRACK 37 AUDIO
    TITLE "0:"
    INDEX 01 00:43:39
  TRACK 38 AUDIO
    TITLE "6:cjc124_3057"
    INDEX 01 00:43:56
  TRACK 39 AUDIO
    TITLE "0:"
    INDEX 01 00:45:20
  TRACK 40 AUDIO
    TITLE "5:cjc124_3058"
    INDEX 01 00:45:61
  TRACK 41 AUDIO
    TITLE "0:"
    INDEX 01 00:47:42
  TRACK 42 AUDIO
    TITLE "6:cjc124_3059"
    INDEX 01 00:47:60
  TRACK 43 AUDIO
    TITLE "0:"
    INDEX 01 00:49:43
  TRACK 44 AUDIO
    TITLE "5:cjc124_3060"
    INDEX 01 00:50:05
  TRACK 45 AUDIO
    TITLE "0:"
    INDEX 01 00:51:69
  TRACK 46 AUDIO
    TITLE "6:cjc124_3061"
    INDEX 01 00:52:14
  TRACK 47 AUDIO
    TITLE "0:"
    INDEX 01 00:53:62
  TRACK 48 AUDIO
    TITLE "5:cjc124_3062"
    INDEX 01 00:54:25
  TRACK 49 AUDIO
    TITLE "0:"
    INDEX 01 00:56:39
  TRACK 50 AUDIO
    TITLE "6:cjc124_3063"
    INDEX 01 00:56:55
  TRACK 51 AUDIO
    TITLE "0:"
    INDEX 01 00:58:48
  TRACK 52 AUDIO
    TITLE "5:cjc124_3064"
    INDEX 01 00:59:10
  TRACK 53 AUDIO
    TITLE "0:"
    INDEX 01 01:00:62
  TRACK 54 AUDIO
    TITLE "6:cjc124_3065"
    INDEX 01 01:01:05
  TRACK 55 AUDIO
    TITLE "0:"
    INDEX 01 01:03:00
  TRACK 56 AUDIO
    TITLE "5:cjc124_3066"
    INDEX 01 01:03:39
  TRACK 57 AUDIO
    TITLE "0:"
    INDEX 01 01:05:48
  TRACK 58 AUDIO
    TITLE "6:cjc124_3067"
    INDEX 01 01:05:69
  TRACK 59 AUDIO
    TITLE "0:"
    INDEX 01 01:07:59
  TRACK 60 AUDIO
    TITLE "5:cjc124_3068"
    INDEX 01 01:08:25
  TRACK 61 AUDIO
    TITLE "0:"
    INDEX 01 01:09:73
  TRACK 62 AUDIO
    TITLE "6:cjc124_3069"
    INDEX 01 01:10:16
  TRACK 63 AUDIO
    TITLE "0:"
    INDEX 01 01:11:47
  TRACK 64 AUDIO
    TITLE "5:cjc124_3070"
    INDEX 01 01:12:13
  TRACK 65 AUDIO
    TITLE "0:"
    INDEX 01 01:14:04
  TRACK 66 AUDIO
    TITLE "6:cjc124_3071"
    INDEX 01 01:14:21
  TRACK 67 AUDIO
    TITLE "0:"
    INDEX 01 01:15:72
